<svg id="Layer_1" data-name="Layer 1" xmlns="http://www.w3.org/2000/svg" xmlns:xlink="http://www.w3.org/1999/xlink" viewBox="0 0 1396 1023"><defs><style>.cls-1{fill:url(#linear-gradient);}.cls-2{fill:#fff;}.cls-3{fill:#f9f9f9;}.cls-4,.cls-5{fill:none;stroke:#fff;stroke-miterlimit:10;}.cls-4{stroke-width:2px;}.cls-5{stroke-width:2.45px;}</style><linearGradient id="linear-gradient" x1="1416.97" y1="996.97" x2="503.03" y2="83.03" gradientUnits="userSpaceOnUse"><stop offset="0.07" stop-color="#622b7c"/><stop offset="1" stop-color="#c49fca"/></linearGradient></defs><title>ContactPageIllustration</title><path id="_Path_" data-name="&lt;Path&gt;" class="cls-1" d="M1634.72,627.78a79.28,79.28,0,0,0-56.22-23.28h-230a64.5,64.5,0,1,1,0-129h97a79.5,79.5,0,1,0,0-159h-230a53,53,0,0,1-53-53V240.47a53,53,0,0,1,53-53h114a79.5,79.5,0,1,0,0-159h-739a79.5,79.5,0,1,0,0,159h114a53,53,0,0,1,53,53v23.06a53,53,0,0,1-53,53h-230a79.5,79.5,0,1,0,0,159h97a64.5,64.5,0,1,1,0,129h-230a79.5,79.5,0,1,0,0,159h363a53,53,0,0,1,53,53v23.06a53,53,0,0,1-53,53h-114a79.5,79.5,0,1,0,0,159h739a79.5,79.5,0,1,0,0-159h-114a53,53,0,0,1-53-53V816.47a53,53,0,0,1,53-53h363a79.51,79.51,0,0,0,56.22-135.72Z" transform="translate(-262 -28.5)"/><g id="_Group_" data-name="&lt;Group&gt;"><path id="_Compound_Path_" data-name="&lt;Compound Path&gt;" class="cls-2" d="M870.66,180.76a24.45,24.45,0,0,0-31.27,14.66,38.71,38.71,0,0,0-2.28,9.74c-.77,7.29-.06,17.93.21,21.43a5.2,5.2,0,0,0-2,2.5,5.29,5.29,0,0,0,.12,3.95,5.27,5.27,0,0,0-2.57,2.85,5.32,5.32,0,0,0,.32,4.39,5.24,5.24,0,0,0-2.4,2.77,5.81,5.81,0,0,0,3.68,7.29l20.62,7.76.08,0a6.25,6.25,0,0,0,4.68-.14,5.25,5.25,0,0,0,2.48-7.35,5.24,5.24,0,0,0,2.28-6.72,5.2,5.2,0,0,0,2.47-6.73c2.56-2.64,9.74-10.21,13.75-16.22a38.6,38.6,0,0,0,4.47-8.94A24.45,24.45,0,0,0,870.66,180.76Zm-12.21,74.12a2.76,2.76,0,0,1-2.14,0l-20.62-7.76a2.41,2.41,0,0,1-1.69-2.91,2.2,2.2,0,0,1,2.35-1.27,1.7,1.7,0,0,0,1-3.18,2.31,2.31,0,0,1-1.26-2.71,2.19,2.19,0,0,1,2.24-1.27,1.71,1.71,0,0,0,1.12-3.05,2.22,2.22,0,0,1-.9-2.47,1.78,1.78,0,0,1,.68-.85l24.68,8.92a1.92,1.92,0,0,1,.11,1.53,2.18,2.18,0,0,1-2.23,1.27,1.7,1.7,0,0,0-1.12,3.05,2.22,2.22,0,0,1,.89,2.47,2.2,2.2,0,0,1-2.35,1.26,1.7,1.7,0,0,0-1,3.18,2.34,2.34,0,0,1,1.25,2.71A1.88,1.88,0,0,1,858.45,254.88ZM878,219.08c-3.87,5.8-11.14,13.44-13.5,15.87l-23.78-8.6c-.26-3.37-1-13.89-.23-20.82a35.61,35.61,0,0,1,2.1-8.95,21,21,0,0,1,39.51,14.29A35.63,35.63,0,0,1,878,219.08Z" transform="translate(-262 -28.5)"/><path id="_Path_2" data-name="&lt;Path&gt;" class="cls-2" d="M902.88,190.37l-11.7,1.82a.89.89,0,0,0,.27,1.76l11.7-1.83a.89.89,0,1,0-.27-1.75Z" transform="translate(-262 -28.5)"/><path id="_Path_3" data-name="&lt;Path&gt;" class="cls-2" d="M887.31,188.09a1,1,0,0,0,1.39-.24L898,175.67a1,1,0,0,0-1.65-1.26l-9.31,12.18a1,1,0,0,0,.19,1.46Z" transform="translate(-262 -28.5)"/><path id="_Path_4" data-name="&lt;Path&gt;" class="cls-2" d="M864.86,187.09c-3.63-1.23-11.38-1.51-14.75,6.2a2,2,0,0,0,1,2.69h0a2.06,2.06,0,0,0,2.69-1,8.59,8.59,0,0,1,.76-1.39,7.21,7.21,0,0,1,7.15-2.95,9.67,9.67,0,0,1,1.8.36,2,2,0,0,0,1.3-3.87Z" transform="translate(-262 -28.5)"/></g><g id="_Group_2" data-name="&lt;Group&gt;"><path id="_Compound_Path_2" data-name="&lt;Compound Path&gt;" class="cls-2" d="M1056.44,887.5a15,15,0,0,0-18.1,11.15,23.83,23.83,0,0,0-.72,6.12,85.78,85.78,0,0,0,1.63,13.09,3.2,3.2,0,0,0-1,1.67,3.21,3.21,0,0,1-1,4.33,3.28,3.28,0,0,0,.5,2.66,3.23,3.23,0,0,0-1.28,1.86,3.57,3.57,0,0,0,2.76,4.2l13.15,3.31h.05a3.85,3.85,0,0,0,2.85-.41,9.12,9.12,0,0,1,2.28-6.53,3.21,3.21,0,0,1,1-4.33,3.26,3.26,0,0,0-.33-2.37,85,85,0,0,0,7.28-10.88,23.76,23.76,0,0,0,2.11-5.78A15,15,0,0,0,1056.44,887.5Zm-2.29,46.18a1.7,1.7,0,0,1-1.31.17l-13.15-3.31a1.48,1.48,0,0,1-1.23-1.66,1.36,1.36,0,0,1,1.35-.94,1,1,0,0,0,.38-2,1.42,1.42,0,0,1-1-1.57,1.35,1.35,0,0,1,1.28-.93,1,1,0,0,0,.47-1.95,1.37,1.37,0,0,1-.72-1.45,1.1,1.1,0,0,1,.36-.57l15.72,3.73a1.18,1.18,0,0,1,.18.93,1.34,1.34,0,0,1-1.28.93,1,1,0,0,0-.47,1.95,1.37,1.37,0,0,1,.72,1.45,1.35,1.35,0,0,1-1.35.94,1,1,0,0,0-.38,2,1.44,1.44,0,0,1,1,1.57A1.15,1.15,0,0,1,1054.14,933.68Zm9.46-23.26a85.09,85.09,0,0,1-7.14,10.65l-15.15-3.6a84.83,84.83,0,0,1-1.59-12.72,21.92,21.92,0,0,1,.66-5.62,12.93,12.93,0,0,1,25.16,6A21.93,21.93,0,0,1,1063.61,910.42Z" transform="translate(-262 -28.5)"/><path id="_Path_5" data-name="&lt;Path&gt;" class="cls-2" d="M1076.81,891.12l-7,1.93a.55.55,0,0,0,.29,1.05l7-1.93a.55.55,0,1,0-.29-1.05Z" transform="translate(-262 -28.5)"/><path id="_Path_6" data-name="&lt;Path&gt;" class="cls-2" d="M1067.13,890.82a.64.64,0,0,0,.83-.24l4.84-8.1a.64.64,0,0,0-1.1-.66l-4.84,8.1a.64.64,0,0,0,.22.88Z" transform="translate(-262 -28.5)"/><path id="_Path_7" data-name="&lt;Path&gt;" class="cls-2" d="M1053.33,891.78c-2.3-.5-7.06-.13-8.59,4.82a1.26,1.26,0,0,0,.83,1.57h0a1.27,1.27,0,0,0,1.57-.83,5.29,5.29,0,0,1,.37-.9,4.44,4.44,0,0,1,4.17-2.3,6,6,0,0,1,1.13.1,1.26,1.26,0,0,0,.53-2.46Z" transform="translate(-262 -28.5)"/></g><g id="_Group_3" data-name="&lt;Group&gt;"><path id="_Compound_Path_3" data-name="&lt;Compound Path&gt;" class="cls-2" d="M1273.45,412.08a15.35,15.35,0,0,0-12.61,17.64,24.31,24.31,0,0,0,1.75,6,87.5,87.5,0,0,0,6.71,11.67,3.26,3.26,0,0,0-.32,2,3.28,3.28,0,0,1,.75,4.47,3.34,3.34,0,0,0,1.53,2.3,3.29,3.29,0,0,0-.46,2.26,3.65,3.65,0,0,0,4.26,2.86l13.67-2.09h.05a3.92,3.92,0,0,0,2.52-1.52,3.3,3.3,0,0,0-.9-4.79,8.5,8.5,0,0,1-.28-6.73,3.32,3.32,0,0,0-1.25-2.1A86.68,86.68,0,0,0,1291.4,431a24.24,24.24,0,0,0-.3-6.27A15.35,15.35,0,0,0,1273.45,412.08Zm16.12,44.33a1.74,1.74,0,0,1-1.16.67l-13.68,2.09a1.51,1.51,0,0,1-1.82-1.08,1.38,1.38,0,0,1,.9-1.42,1.07,1.07,0,0,0-.44-2,1.45,1.45,0,0,1-1.52-1.1,1.38,1.38,0,0,1,.83-1.38,1.07,1.07,0,0,0-.33-2,1.4,1.4,0,0,1-1.25-1.08,1.12,1.12,0,0,1,.11-.67l16.25-2.71a1.21,1.21,0,0,1,.53.8,1.37,1.37,0,0,1-.83,1.38,1.07,1.07,0,0,0,.33,2,1.39,1.39,0,0,1,1.25,1.08,1.38,1.38,0,0,1-.9,1.41,1.07,1.07,0,0,0,.44,2,1.47,1.47,0,0,1,1.52,1.1A1.18,1.18,0,0,1,1289.57,456.41Zm-.3-25.61a86.8,86.8,0,0,1-2.5,12.84l-15.67,2.61a86.54,86.54,0,0,1-6.53-11.33,22.36,22.36,0,0,1-1.6-5.54,13.19,13.19,0,0,1,26-4.33A22.38,22.38,0,0,1,1289.26,430.8Z" transform="translate(-262 -28.5)"/><path id="_Path_8" data-name="&lt;Path&gt;" class="cls-2" d="M1294,407.43l-5.85,4.6a.56.56,0,0,0,.69.88l5.84-4.6a.56.56,0,1,0-.69-.88Z" transform="translate(-262 -28.5)"/><path id="_Path_9" data-name="&lt;Path&gt;" class="cls-2" d="M1284.82,411a.65.65,0,0,0,.69-.56l1.35-9.53a.65.65,0,0,0-1.29-.18l-1.35,9.53a.65.65,0,0,0,.55.74Z" transform="translate(-262 -28.5)"/><path id="_Path_10" data-name="&lt;Path&gt;" class="cls-2" d="M1272.22,417.33c-2.36.44-6.69,2.67-6.17,7.93a1.28,1.28,0,0,0,1.4,1.15h0a1.29,1.29,0,0,0,1.15-1.4,5.39,5.39,0,0,1,0-1,4.53,4.53,0,0,1,3-3.81,6.07,6.07,0,0,1,1.1-.35,1.28,1.28,0,0,0-.48-2.52Z" transform="translate(-262 -28.5)"/></g><g id="_Group_4" data-name="&lt;Group&gt;"><path id="_Path_11" data-name="&lt;Path&gt;" class="cls-3" d="M879.37,467.09h152.27a5.21,5.21,0,1,0,0-10.41H879.37a5.21,5.21,0,1,0,0,10.41Z" transform="translate(-262 -28.5)"/><path id="_Path_12" data-name="&lt;Path&gt;" class="cls-3" d="M1036.86,507.64a5.2,5.2,0,0,0-5.21-5.2H879.37a5.2,5.2,0,1,0,0,10.4h152.27A5.21,5.21,0,0,0,1036.86,507.64Z" transform="translate(-262 -28.5)"/><g id="_Group_5" data-name="&lt;Group&gt;"><path class="cls-3" d="M1150.52,494.82l-64.28-47V436.53c0-22.66-19.17-41.09-42.71-41.09h-29L962.6,357.53a7.81,7.81,0,0,0-9.21,0l-51.91,37.92h-29c-23.56,0-42.72,18.43-42.72,41.09v11.32l-64.29,47a7.82,7.82,0,0,0-3.2,6.28,7.26,7.26,0,0,0,.15,1.29,6.89,6.89,0,0,0-.15,1.07V697.76a15.12,15.12,0,0,1,.43,8.92,7.79,7.79,0,0,0,7.38,5.29h375.83a7.81,7.81,0,0,0,7.39-5.3,15,15,0,0,1,.42-8.91V503.46a8.27,8.27,0,0,0-.14-1,8.13,8.13,0,0,0,.14-1.39A7.83,7.83,0,0,0,1150.52,494.82Zm-64.28-27.63,46.66,34.09-45,34.64-1.66,1.2ZM958,373.5l30,22H928Zm-112.62,63c0-14,12.15-25.47,27.1-25.47h171c14.93,0,27.1,11.43,27.1,25.47V548.47l-61.44,44.62a7.82,7.82,0,0,0-2.95,1.29l-47.75,36.08-50-36.17h0l-63.08-45.81ZM829.77,467.2v68.47l-46.51-34.5ZM777.9,518.78l112.71,81.83L777.9,682.45Zm15,177.58,111.12-86L954,646.49a7.82,7.82,0,0,0,9.28-.09l47.62-36,112,85.94Zm345.16-13.91-112.72-81.83,112.72-81.83Z" transform="translate(-262 -28.5)"/><path class="cls-3" d="M1151.28,493.53,1095.86,453c-2.64-1.93-5.55-4.85-8.54-6.24-1-.45.16,1.34.42.62.36-1,0-2.67,0-3.74,0-3.27.12-6.57-.09-9.84-1.25-18.95-15.8-34.7-34.13-38.79-5.87-1.31-11.84-1.1-17.81-1.1-6.51,0-13.23-.48-19.72,0-2,.15-.35.41-1.29-.21-1.41-.94-2.76-2-4.13-3l-15.28-11.16c-10.13-7.4-20.17-14.92-30.39-22.2-3.88-2.77-8-3.82-12.33-1.08-2.95,1.85-5.69,4.16-8.5,6.21l-34.15,24.95c-2.84,2.07-5.87,5.06-9,6.61-.34.17,1.22-.23-.06-.1a24.34,24.34,0,0,1-2.47,0H888c-15.08,0-29.7-.67-42.51,8.91a41.75,41.75,0,0,0-17.2,33.79c0,3-.59,6.72,0,9.62.35,1.73-.58,1.4.62.38a3.22,3.22,0,0,1-.7.51c-1.34.55-2.77,2-3.94,2.88l-14.09,10.29-34.79,25.42c-3.28,2.39-6.62,4.72-9.84,7.19-3.72,2.85-4.76,6-4.76,10.64q0,7.52,0,15V677.81c0,6.32-.23,12.68,0,19,.15,4.27-.81,9.48,2,13.07,2,2.57,4.88,3.51,8,3.6,11.36.34,22.79,0,34.15,0h334.49c2.62,0,5.51.32,8.11-.15,9.59-1.74,7.7-13,7.7-20.4V511.16c0-5.87,1.11-13.18-3.64-17.4-1.44-1.28-3.57.84-2.12,2.12,4,3.55,2.76,12.91,2.76,18V692.75c0,1.57.15,3.21,0,4.77,0,.08,0,.16,0,.24-.11,1-.64,2.14-.78,3.22-.45,3.42,3.32.07,0,6.22-1.29,2.38-3.44,3-5.87,3.27-3.05.28-6.26,0-9.33,0H783.51c-4,0-8.13.19-12.17,0-4.43-.2-7.73-2.4-7.32-7.72.19-2.41-.24-4.71-.24-7.23V551.77q0-24,0-48.08c0-4.45,1.46-6.85,4.72-9.23L780.12,486l33.74-24.65L827,451.71c1.54-1.13,3.69-2.12,4.25-4,.74-2.46,0-6.31,0-8.84a47.59,47.59,0,0,1,1-11.19,40.13,40.13,0,0,1,19-25.13c12.82-7.4,28.13-5.63,42.35-5.63,2.8,0,6.5.7,9.06-.56,3.52-1.74,6.83-5,10-7.3l32.86-24c2.8-2,5.54-4.39,8.5-6.21,4.9-3,8.3.35,12,3l32.29,23.59,12.85,9.39c2,1.48,2.76,2,5.27,2.07,12.52.15,26.67-1.84,38.85,1.66a41.31,41.31,0,0,1,24.21,18.7c4.55,7.83,5.2,16.08,5.2,24.89,0,3.54-.75,5.76,2,7.88,3.27,2.52,6.68,4.88,10,7.31l34.16,25,18.85,13.77C1151.32,497.26,1152.82,494.66,1151.28,493.53Z" transform="translate(-262 -28.5)"/><path class="cls-3" d="M1085.48,468.49l46.66,34.09V500c-15.52,12-30.78,24.38-46.66,35.84l2.26,1.3V467.2a1.5,1.5,0,0,0-3,0v69.93a1.51,1.51,0,0,0,2.26,1.3c15.89-11.46,31.14-23.89,46.66-35.84a1.53,1.53,0,0,0,0-2.59L1087,465.9C1085.44,464.76,1083.94,467.36,1085.48,468.49Z" transform="translate(-262 -28.5)"/><path class="cls-3" d="M957.25,374.79l30,22,.76-2.8H928l.76,2.8,30-22c1.54-1.13,0-3.73-1.51-2.59l-30,22a1.51,1.51,0,0,0,.76,2.8H988a1.51,1.51,0,0,0,.76-2.8l-30-22C957.2,371.06,955.7,373.66,957.25,374.79Z" transform="translate(-262 -28.5)"/><path class="cls-3" d="M846.89,436.53c.39-13.92,12.09-23.7,25.61-24,1.75,0,3.51,0,5.26,0h161.74a54.21,54.21,0,0,1,8.07.32c12,1.81,21.23,11.56,21.56,23.8.7,26,0,52.19,0,78.23v21c0,3.42-.88,8.19,0,11.51.46,1.72,0,.05.46-.05-1.15.28-2.67,1.94-3.62,2.63l-16.11,11.7L1013,588.49c-2.61,1.89-5.34,3.15-7.93,4.91-4.36,3-8.46,6.4-12.67,9.57l-19.73,14.91L964,624.4c-1.59,1.2-4.12,2.47-5.36,4.05-.23.29-.7.4-.93.7,1.07-1.44,1.71,1,.79-.49s-3.65-2.64-5-3.6L935,611.66,916.3,598.11c-1.89-1.37-3.75-3-5.76-4.16-.42-.25-.77-.64-1.2-.87-.62-.33,1.29,1.51.61,1-.2-.15-.43-.84-.72-1.1-7.84-7-17.42-12.65-25.91-18.81l-34.85-25.3c-.69-.5-2.55-2.44-2-1s.36-.89.36-1.41V436.53a1.5,1.5,0,0,0-3,0V545.26c0,4,.71,4.47,4,6.84L872.54,570,900,590c1.71,1.24,5,4.77,7.12,5.17,1.69.32-1.4-1.12.14,0,.48.36,1,.77,1.47,1.14,15.91,12.3,32.66,23.63,49,35.42a1.45,1.45,0,0,0,1.51,0l41.45-31.32c3.65-2.76,7.52-4.79,11.15-7.43l20.43-14.84,26.65-19.35,9.36-6.8c1-.71,3-1.66,3.64-2.79.47-.87.2-2.34.2-3.27V447.17c0-4.46.32-9.08-.18-13.52-1.6-14.3-14.61-23.79-28.42-24.09-31.79-.69-63.68,0-95.48,0H888.77c-13.36,0-27.82-1.66-37.87,9.3a26.86,26.86,0,0,0-7,17.67C843.83,438.47,846.83,438.46,846.89,436.53Z" transform="translate(-262 -28.5)"/><path class="cls-3" d="M828.27,467.2v68.47l2.26-1.3L784,499.87v2.59l46.51-34c1.54-1.13,0-3.73-1.51-2.59l-46.51,34a1.53,1.53,0,0,0,0,2.59L829,537a1.51,1.51,0,0,0,2.26-1.3V467.2A1.5,1.5,0,0,0,828.27,467.2Z" transform="translate(-262 -28.5)"/><path class="cls-3" d="M777.14,520.07l98.74,71.69,14,10.15v-2.59L791.12,671l-14,10.15,2.26,1.3V518.78a1.5,1.5,0,0,0-3,0V682.45a1.51,1.51,0,0,0,2.26,1.3l98.74-71.69,14-10.15a1.53,1.53,0,0,0,0-2.59l-98.74-71.69-14-10.15C777.09,516.35,775.59,518.95,777.14,520.07Z" transform="translate(-262 -28.5)"/><path class="cls-3" d="M794,697.42l97.31-75.3,13.81-10.69-1.82.23,46.89,33.92c2.8,2,5.43,4.18,9.17,3.86,3.31-.29,5.69-2.5,8.21-4.4l27.33-20.65,12.78-9.66c.91-.69,2.63-1.51,3.27-2.47.9-1.35-.41,0-.62-.4.5,1.06,3.06,2.35,4,3l8.33,6.39,56.89,43.65,42.64,32.72.76-2.8h-330a1.5,1.5,0,0,0,0,3h330a1.51,1.51,0,0,0,.76-2.8l-97.93-75.14-14.07-10.8a1.44,1.44,0,0,0-1.51,0l-42.92,32.43c-2,1.48-4.44,4-6.9,4.67-3.74,1-6.74-1.87-9.5-3.87l-25.45-18.41-20.56-14.87a1.53,1.53,0,0,0-1.82.23l-97.31,75.3L791.88,695.3C790.36,696.48,792.49,698.59,794,697.42Z" transform="translate(-262 -28.5)"/><path class="cls-3" d="M1138.86,681.15l-98.74-71.69-14-10.15v2.59l98.74-71.69,14-10.15-2.26-1.3V682.45a1.5,1.5,0,0,0,3,0V518.78a1.51,1.51,0,0,0-2.26-1.3l-98.74,71.69-14,10.15a1.53,1.53,0,0,0,0,2.59l98.74,71.69,14,10.15C1138.91,684.88,1140.41,682.27,1138.86,681.15Z" transform="translate(-262 -28.5)"/></g></g><g id="_Group_6" data-name="&lt;Group&gt;"><path id="_Compound_Path_4" data-name="&lt;Compound Path&gt;" class="cls-2" d="M746.87,951.16a1.23,1.23,0,0,0,2.08.05l2.28-3.43,4.9,15L752.28,964a1.22,1.22,0,0,0-.78,1.55l1.23,3.76a1.23,1.23,0,0,0,1.55.79L770.06,965a1.23,1.23,0,0,0,.79-1.55l-1.23-3.76a1.23,1.23,0,0,0-1.55-.78l-3.83,1.25-7.4-22.65a1.22,1.22,0,0,0-1.55-.79l-5,1.62a1.21,1.21,0,0,0-.59.42l-5.24,6.89a1.22,1.22,0,0,0-.08,1.36Zm3.92-11.57,4.79-1.56,7.78,23.81,5-1.63,1.15,3.5L754,968.78l-1.15-3.5,5-1.64-6.2-19-3.71,5.59-2.29-3.9Z" transform="translate(-262 -28.5)"/><path id="_Compound_Path_5" data-name="&lt;Compound Path&gt;" class="cls-2" d="M727.38,995.83a1.18,1.18,0,0,0,1.22.44l10.14-2.43,3.3,9.07a1.18,1.18,0,0,0,2.13.18l13-22.58,1.67,2.13a2.68,2.68,0,0,0,2.95,1.12,2.91,2.91,0,0,0,1.74-1.82l2-5.06a1.48,1.48,0,0,1,.91-.88,1.45,1.45,0,0,1,1.06.06l5,2.22a3,3,0,0,0,2.19.2,2.33,2.33,0,0,0,1.21-.93L793.91,988a1.18,1.18,0,0,0,1,.1,1.2,1.2,0,0,0,.32-.16,1.18,1.18,0,0,0,.46-1.19l-1.88-9.31,9.55-4.13a1.18,1.18,0,0,0,.12-2.1l-22.27-12.78s0-.09,0-.14a1.46,1.46,0,0,1,.68-.95l4.64-2.81a2.57,2.57,0,0,0-.13-4.74l-4.79-2.55a1.47,1.47,0,0,1-.73-.9,1.45,1.45,0,0,1,.17-1.15l2.8-4.65a2.57,2.57,0,0,0-2.32-4.13l-5.43,0a1.44,1.44,0,0,1-1.46-1.56l.32-5.41a2.83,2.83,0,0,0-1-2.51,2.68,2.68,0,0,0-3-.08l-4.82,2.49a1.45,1.45,0,0,1-2-.7l-2.24-4.94a2.58,2.58,0,0,0-3.15-1.68,3.14,3.14,0,0,0-1.56,1.24l-3.11,4.45a1.48,1.48,0,0,1-2.11.32l-4.28-3.34A2.82,2.82,0,0,0,745,924a2.72,2.72,0,0,0-1.75,2.41l-.69,5.39a1.48,1.48,0,0,1-1.72,1.26l-5.34-1a2.68,2.68,0,0,0-3,1.28,2.93,2.93,0,0,0,0,2.35l1.89,5.09a1.46,1.46,0,0,1,0,1.16,1.48,1.48,0,0,1-.89.76l-5.23,1.64a2.75,2.75,0,0,0-2,2,2.79,2.79,0,0,0,1,2.64l4,3.63a1.48,1.48,0,0,1,.5,1.05,1.46,1.46,0,0,1-.44,1.08l-3.83,3.84a2.57,2.57,0,0,0,1.26,4.57l5.26,1.34a1.45,1.45,0,0,1,1,1.86l-1.61,5.19a2.57,2.57,0,0,0,3.24,3.46l2.13-.51-11.54,20.1A1.18,1.18,0,0,0,727.38,995.83Zm57.09-28.48a4,4,0,0,1,.47-.93,2.88,2.88,0,0,0-.48-2.55l-1-1.45L800.22,972,792,975.61a1.18,1.18,0,0,0-.69,1.32l1.56,7.7-16.67-9.56-.57-5a.79.79,0,0,1,1-1l5.42-.34h0A2.81,2.81,0,0,0,784.47,967.35Zm-48.31,5.36a.9.9,0,0,1-.55,0l0,0h0a1.06,1.06,0,0,1,.06-.5l1.61-5.19a3.89,3.89,0,0,0,.15-.76,3.75,3.75,0,0,0-2.84-4l-5.26-1.34a1.41,1.41,0,0,1-.37-.14h0a.38.38,0,0,1-.12-.1s0-.21.3-.46l2-2,1.86-1.87a3.75,3.75,0,0,0,0-5.38l-.1-.1-4-3.63a1.09,1.09,0,0,1-.31-.4v0l0,0a1.14,1.14,0,0,1,.44-.23l1.33-.42,3.89-1.22a3.76,3.76,0,0,0,2.61-3.41s0-.1,0-.14a3.83,3.83,0,0,0-.23-1.36l-1.89-5.09c-.13-.34-.09-.52,0-.56a1,1,0,0,1,.5,0l4.39.8,1,.17.19,0a3.8,3.8,0,0,0,1.67-.15,3.72,3.72,0,0,0,2.12-1.77,3.86,3.86,0,0,0,.44-1.34l.69-5.39a1.94,1.94,0,0,1,.05-.26.8.8,0,0,1,.1-.23l0,0,.1,0,.08,0a1.35,1.35,0,0,1,.32.19l2.9,2.26,1.38,1.08a3.82,3.82,0,0,0,1.09.59,3.75,3.75,0,0,0,2.41,0,3.69,3.69,0,0,0,.66-.3,3.78,3.78,0,0,0,1.26-1.14l1.27-1.82,1.84-2.63a1,1,0,0,1,.37-.36l0,0s.18.11.33.44l2.23,4.95a3.8,3.8,0,0,0,1.51,1.69,3.88,3.88,0,0,0,.76.34,3.75,3.75,0,0,0,2.91-.23l4.83-2.49a1.2,1.2,0,0,1,.52-.15l0,0a1,1,0,0,1,.07.51l-.32,5.42c0,.13,0,.26,0,.39h0s0,.06,0,.09a3.73,3.73,0,0,0,.71,2,3.9,3.9,0,0,0,.3.36,3.66,3.66,0,0,0,.44.38,3.75,3.75,0,0,0,2.3.81l4.05,0h1.38a1.14,1.14,0,0,1,.46.08l.07,0a.56.56,0,0,1,0,.25,1.45,1.45,0,0,1-.13.27l-1.76,2.92-1,1.73a3.75,3.75,0,0,0,1.46,5.28l4.79,2.55a.92.92,0,0,1,.42.35h0v0h0a1.09,1.09,0,0,1-.38.34l-4.64,2.82a3.72,3.72,0,0,0-1.82,3.1.17.17,0,0,0,0,0,3.66,3.66,0,0,0,0,.68h0a2.55,2.55,0,0,0,.21,2.22l3.05,4.49h0l-5.34.33a3.84,3.84,0,0,0-.64.1l-.32.08h0a3.93,3.93,0,0,0-.54.23l-.11.06a3.57,3.57,0,0,0-.42.27l-.16.13-.24.22a3.66,3.66,0,0,0-.28.32l-.09.11a3.77,3.77,0,0,0-.35.57h0a3.77,3.77,0,0,0-.77,2.75l.53,4.64a1.17,1.17,0,0,0,.3.65h0l-.15,0h0l-.22-.08-5-2.22a3.8,3.8,0,0,0-1.14-.3,3.65,3.65,0,0,0-3.17,1.18,3.61,3.61,0,0,0-.4.52,3.81,3.81,0,0,0-.35.69l-2,5.06a1.86,1.86,0,0,1-.08.18l-.09.15h0a.38.38,0,0,1-.11.1h0l0,0h0a1.11,1.11,0,0,1-.37-.33l-2.26-2.87a1.17,1.17,0,0,0-.12-1.25l-.16-.2a3.76,3.76,0,0,0-3.68-1.4h0a3.94,3.94,0,0,0-.62,0h0a3.72,3.72,0,0,0-.63.15,3.77,3.77,0,0,0-.7.31h0a3.91,3.91,0,0,0-.62.44h0l-3.93,3.43s0-.08,0-.14l-1-5.34h0a3.75,3.75,0,0,0-4.41-3H742a3.46,3.46,0,0,0-.59.08l-1.78.43Zm5.51,1.52,1.09-.51a1.42,1.42,0,0,1,.37.17,1.46,1.46,0,0,1,.64,1l1,5.34a2.93,2.93,0,0,0,1.31,2.07,2.3,2.3,0,0,0,1.59.28,3,3,0,0,0,2.4-.81l4.09-3.57a.75.75,0,0,1,1.31.22l.11.14-12.18,21.21-2.79-7.67a1.18,1.18,0,0,0-1.38-.74l-8.51,2Z" transform="translate(-262 -28.5)"/></g><g id="_Group_7" data-name="&lt;Group&gt;"><path id="_Compound_Path_6" data-name="&lt;Compound Path&gt;" class="cls-2" d="M1211.42,114.38a1.23,1.23,0,0,0,1.52,1.41l4-1.07-6.23,14.49-3.72-1.6a1.22,1.22,0,0,0-1.61.64l-1.56,3.64a1.23,1.23,0,0,0,.64,1.61l15.26,6.56a1.23,1.23,0,0,0,1.61-.64l1.56-3.64a1.23,1.23,0,0,0-.64-1.61l-3.7-1.59,9.41-21.89a1.22,1.22,0,0,0-.64-1.61l-4.79-2.06a1.21,1.21,0,0,0-.73-.07l-8.49,1.71a1.22,1.22,0,0,0-1,1Zm10.59-6.09,4.63,2-9.89,23,4.83,2.07-1.46,3.39-15-6.45,1.46-3.39,4.85,2.08,7.88-18.33-6.48,1.75.85-4.44Z" transform="translate(-262 -28.5)"/><path id="_Compound_Path_7" data-name="&lt;Compound Path&gt;" class="cls-2" d="M1167.27,135a1.18,1.18,0,0,0,.62,1.13l9.21,4.88-3.51,9a1.18,1.18,0,0,0,1.48,1.54l24.65-8.39-.15,2.71a2.68,2.68,0,0,0,1.47,2.79,2.91,2.91,0,0,0,2.51-.22l4.82-2.51a1.48,1.48,0,0,1,1.26-.06,1.45,1.45,0,0,1,.76.75l2.25,4.94a3,3,0,0,0,1.51,1.6,2.33,2.33,0,0,0,1.53.1l6.73,19.77a1.18,1.18,0,0,0,.65.7,1.2,1.2,0,0,0,.35.09,1.18,1.18,0,0,0,1.13-.59l4.74-8.23,9.9,3.21a1.18,1.18,0,0,0,1.48-1.5l-8.27-24.31.1-.09a1.46,1.46,0,0,1,1.14-.26l5.34,1a2.57,2.57,0,0,0,3-3.64l-1.91-5.08a1.47,1.47,0,0,1,0-1.16,1.45,1.45,0,0,1,.89-.75l5.17-1.64a2.57,2.57,0,0,0,1-4.64l-4-3.61a1.44,1.44,0,0,1-.06-2.13l3.81-3.86a2.83,2.83,0,0,0,.92-2.53,2.68,2.68,0,0,0-2.2-2l-5.26-1.32a1.45,1.45,0,0,1-1.05-1.86l1.59-5.19a2.58,2.58,0,0,0-1.26-3.34,3.14,3.14,0,0,0-2-.1l-5.27,1.28a1.48,1.48,0,0,1-1.8-1.16l-1-5.33a2.82,2.82,0,0,0-1.57-2.2,2.72,2.72,0,0,0-2.91.66L1221,97a1.48,1.48,0,0,1-2.13-.19l-3.37-4.26a2.68,2.68,0,0,0-3.13-1,2.93,2.93,0,0,0-1.56,1.76l-1.94,5.07a1.46,1.46,0,0,1-.8.84,1.48,1.48,0,0,1-1.17,0l-5-2.22a2.75,2.75,0,0,0-2.8.17,2.79,2.79,0,0,0-1,2.66l.64,5.39a1.48,1.48,0,0,1-.32,1.12,1.46,1.46,0,0,1-1,.52l-5.41.36a2.57,2.57,0,0,0-2.07,4.26l3.07,4.48a1.45,1.45,0,0,1-.45,2.09l-4.63,2.83a2.57,2.57,0,0,0,.15,4.74l1.94,1L1168.07,134A1.18,1.18,0,0,0,1167.27,135Zm61.68,16.34.29-.15a2.24,2.24,0,0,0,.68-.24,2.88,2.88,0,0,0,1.33-2.24l.22-1.74,6.22,18.28-8.57-2.78a1.18,1.18,0,0,0-1.38.53l-3.92,6.81-6.19-18.19,2.85-4.1a.79.79,0,0,1,1.38-.07l4.29,3.33h0A2.81,2.81,0,0,0,1228.95,151.38Zm-39.8-27.89a.9.9,0,0,1-.42-.35l0,0h0a1.06,1.06,0,0,1,.38-.34l4.63-2.83a3.89,3.89,0,0,0,.62-.47,3.75,3.75,0,0,0,.53-4.89l-3.07-4.48a1.41,1.41,0,0,1-.18-.35h0a.38.38,0,0,1,0-.15.85.85,0,0,1,.53-.15l2.78-.18,2.63-.17a3.75,3.75,0,0,0,3.52-4.07s0-.1,0-.14l-.63-5.39a1.09,1.09,0,0,1,0-.5l0,0h.06a1.14,1.14,0,0,1,.48.12l1.28.57,3.73,1.65a3.76,3.76,0,0,0,4.21-.83l.09-.11a3.83,3.83,0,0,0,.72-1.17l1.94-5.07c.13-.34.27-.45.35-.44a1,1,0,0,1,.38.33l2.77,3.49.6.76.13.14a3.8,3.8,0,0,0,1.35,1,3.72,3.72,0,0,0,2.76.07,3.86,3.86,0,0,0,1.22-.72l4.08-3.59.21-.16a.8.8,0,0,1,.23-.11h0l.06.08,0,.08a1.35,1.35,0,0,1,.11.35L1228,99l.32,1.72a3.82,3.82,0,0,0,.42,1.16,3.75,3.75,0,0,0,1.78,1.62,3.69,3.69,0,0,0,.69.21,3.78,3.78,0,0,0,1.7,0l2.16-.52,3.12-.76a1,1,0,0,1,.51,0h0a.88.88,0,0,1,0,.55l-1.59,5.19a3.8,3.8,0,0,0,0,2.27,3.88,3.88,0,0,0,.34.76,3.75,3.75,0,0,0,2.34,1.74l5.27,1.32a1.2,1.2,0,0,1,.49.24v0a1,1,0,0,1-.29.43l-3.82,3.86c-.09.09-.18.19-.26.29h0l-.05.07a3.73,3.73,0,0,0-.77,1.95,3.9,3.9,0,0,0,0,.47,3.66,3.66,0,0,0,.08.57,3.75,3.75,0,0,0,1.19,2.13l3,2.7,1,.92a1.14,1.14,0,0,1,.3.36l0,.08a.56.56,0,0,1-.2.16,1.45,1.45,0,0,1-.28.12l-3.25,1-1.93.61a3.75,3.75,0,0,0-2.4,4.93l1.91,5.08a.92.92,0,0,1,.08.54h0l0,0h0a1.09,1.09,0,0,1-.51,0l-5.34-1a3.72,3.72,0,0,0-3.42,1.12l0,0a3.66,3.66,0,0,0-.41.54h0a2.55,2.55,0,0,0-1.31,1.8l-.67,5.38h0l-4.23-3.28a3.84,3.84,0,0,0-.55-.35l-.29-.15h0a3.93,3.93,0,0,0-.56-.19l-.12,0a3.57,3.57,0,0,0-.5-.07h-.54l-.42.05-.14,0a3.77,3.77,0,0,0-.64.2h0a3.77,3.77,0,0,0-2.39,1.56l-2.67,3.83a1.17,1.17,0,0,0-.2.69h0l-.09-.12,0,0a1.47,1.47,0,0,1-.11-.21l-2.25-4.94a3.8,3.8,0,0,0-.66-1,3.65,3.65,0,0,0-3.16-1.21,3.61,3.61,0,0,0-.64.12,3.81,3.81,0,0,0-.72.28l-4.82,2.51-.18.08-.17.05h0a.38.38,0,0,1-.15,0h0l0,0h0a1.11,1.11,0,0,1-.06-.49l.2-3.65a1.17,1.17,0,0,0,.73-1v-.25a3.76,3.76,0,0,0-1.84-3.48h0a3.94,3.94,0,0,0-.49-.39h0a3.72,3.72,0,0,0-.57-.31,3.77,3.77,0,0,0-.73-.23h0a3.91,3.91,0,0,0-.76-.08h0l-5.21,0,.07-.12,2.79-4.66h0a3.75,3.75,0,0,0-1.31-5.19h0a3.72,3.72,0,0,0-.32-.27,3.46,3.46,0,0,0-.5-.33l-1.62-.86Zm3.14,4.78,1.15.34a1.42,1.42,0,0,1,.17.37,1.46,1.46,0,0,1-.17,1.15l-2.78,4.66a2.93,2.93,0,0,0-.39,2.42,2.3,2.3,0,0,0,1,1.26,3,3,0,0,0,2.33,1l5.42,0a.75.75,0,0,1,.84,1v.18l-23.16,7.88,3-7.61a1.18,1.18,0,0,0-.55-1.47l-7.73-4.09Z" transform="translate(-262 -28.5)"/></g><g id="_Group_8" data-name="&lt;Group&gt;"><path id="_Compound_Path_8" data-name="&lt;Compound Path&gt;" class="cls-2" d="M1228.74,606.19a1,1,0,0,0,1.38.86l2.89-1.41-2.62,12-3.08-.67a1,1,0,0,0-1.14.73l-.66,3a1,1,0,0,0,.73,1.14l12.66,2.76a1,1,0,0,0,1.14-.73l.66-3a1,1,0,0,0-.73-1.14l-3.07-.67,4-18.16a1,1,0,0,0-.73-1.14l-4-.87a.94.94,0,0,0-.57.05l-6.25,2.57a1,1,0,0,0-.59.89Zm7.21-6.23,3.84.84-4.17,19.09,4,.87-.61,2.81-12.45-2.72.61-2.81,4,.88,3.32-15.2-4.71,2.3v-3.53Z" transform="translate(-262 -28.5)"/><path id="_Compound_Path_9" data-name="&lt;Compound Path&gt;" class="cls-2" d="M1198,628.55a.92.92,0,0,0,.64.78l7.78,2.37-1.36,7.4a.92.92,0,0,0,1.36,1L1224,630l.29,2.09a2.09,2.09,0,0,0,1.54,1.92,2.27,2.27,0,0,0,1.89-.54l3.32-2.63a1.15,1.15,0,0,1,1-.23,1.13,1.13,0,0,1,.69.46l2.46,3.45a2.36,2.36,0,0,0,1.4,1,1.82,1.82,0,0,0,1.18-.15l8.08,14.15a.92.92,0,0,0,.6.44.94.94,0,0,0,.28,0,.92.92,0,0,0,.78-.62l2.41-7,8.05,1a.92.92,0,0,0,.91-1.37L1249,624.59l.07-.09a1.14,1.14,0,0,1,.83-.37l4.23-.06a2,2,0,0,0,1.79-3.24l-2.21-3.61a1.14,1.14,0,0,1-.14-.9,1.13,1.13,0,0,1,.57-.71l3.72-2a2,2,0,0,0,.07-3.7l-3.64-2.17a1.13,1.13,0,0,1-.36-1.62l2.35-3.52a2.21,2.21,0,0,0,.33-2.07,2.09,2.09,0,0,0-2-1.23l-4.23-.23a1.13,1.13,0,0,1-1.08-1.27l.45-4.21a2,2,0,0,0-1.46-2.37,2.45,2.45,0,0,0-1.54.22l-3.85,1.76a1.16,1.16,0,0,1-1.55-.62l-1.56-3.94a2.2,2.2,0,0,0-1.53-1.45,2.12,2.12,0,0,0-2.13.93l-2.59,3.35a1.15,1.15,0,0,1-1.66.17l-3.21-2.76a2.09,2.09,0,0,0-2.55-.34,2.29,2.29,0,0,0-.94,1.58l-.74,4.17a1.14,1.14,0,0,1-.49.76,1.15,1.15,0,0,1-.9.16l-4.17-1a2.15,2.15,0,0,0-2.12.55,2.18,2.18,0,0,0-.35,2.18l1.29,4a1.15,1.15,0,0,1-.08.9,1.14,1.14,0,0,1-.72.55l-4.09,1.07a2,2,0,0,0-1,3.57l3,3a1.13,1.13,0,0,1,0,1.66l-3.13,2.85a2,2,0,0,0,.82,3.61l1.64.5-15.7,9A.92.92,0,0,0,1198,628.55Zm49.65,3.38.2-.15a1.75,1.75,0,0,0,.49-.29,2.25,2.25,0,0,0,.68-1.91l-.09-1.36,7.47,13.08-7-.86a.92.92,0,0,0-1,.61l-2,5.79-7.44-13,1.58-3.56a.61.61,0,0,1,1-.25l3.78,1.91h0A2.19,2.19,0,0,0,1247.64,631.93ZM1213,616.46a.7.7,0,0,1-.37-.21.13.13,0,0,1,0,0h0a.83.83,0,0,1,.24-.31l3.13-2.85a3,3,0,0,0,.4-.45,2.93,2.93,0,0,0-.32-3.82l-3-3a1.1,1.1,0,0,1-.19-.24h0a.29.29,0,0,1,0-.11.66.66,0,0,1,.38-.2l2.1-.55,2-.52a2.92,2.92,0,0,0,2.09-3.64l0-.11-1.28-4a.85.85,0,0,1-.05-.39v0h0a.89.89,0,0,1,.38,0l1.06.24,3.1.72a2.93,2.93,0,0,0,3.1-1.26l.05-.1a3,3,0,0,0,.38-1l.74-4.17c.05-.28.14-.39.2-.39a.81.81,0,0,1,.34.2l2.64,2.27.58.49.12.09a3,3,0,0,0,1.18.56,2.9,2.9,0,0,0,2.12-.35,3,3,0,0,0,.82-.73l2.59-3.35.14-.15a.62.62,0,0,1,.16-.11h0l.06,0,0,.05a1.05,1.05,0,0,1,.14.25l1.06,2.67.5,1.27a3,3,0,0,0,.5.83,2.93,2.93,0,0,0,1.61,1,2.88,2.88,0,0,0,.56.06,3,3,0,0,0,1.3-.27l1.57-.72,2.28-1a.76.76,0,0,1,.39-.1h0a.69.69,0,0,1,0,.43l-.45,4.21a3,3,0,0,0,.35,1.73,3,3,0,0,0,.38.53,2.92,2.92,0,0,0,2,1l4.23.23a.93.93,0,0,1,.41.11.18.18,0,0,1,0,0,.8.8,0,0,1-.16.37l-2.35,3.52c-.06.08-.11.17-.16.26h0l0,.06a2.91,2.91,0,0,0-.3,1.6,3,3,0,0,0,.06.36,2.86,2.86,0,0,0,.14.43,2.93,2.93,0,0,0,1.23,1.45l2.71,1.62.92.55a.89.89,0,0,1,.28.23l0,.05a.43.43,0,0,1-.13.15,1.13,1.13,0,0,1-.19.13l-2.33,1.27-1.39.76a2.93,2.93,0,0,0-1.11,4.13l2.21,3.61a.72.72,0,0,1,.14.4h0l0,0h0a.85.85,0,0,1-.39.08l-4.23.06a2.9,2.9,0,0,0-2.45,1.37v0a2.86,2.86,0,0,0-.24.47h0a2,2,0,0,0-.73,1.57l.28,4.22h0l-3.72-1.88a3,3,0,0,0-.47-.19l-.24-.07h0a3.07,3.07,0,0,0-.45-.06h-.1a2.78,2.78,0,0,0-.39,0l-.16,0-.25.06-.31.1-.1,0a2.94,2.94,0,0,0-.46.25h0a2.94,2.94,0,0,0-1.6,1.55l-1.47,3.33a.92.92,0,0,0-.05.56h0l-.09-.08,0,0-.12-.14-2.46-3.45a3,3,0,0,0-.65-.65,2.84,2.84,0,0,0-2.6-.46,2.81,2.81,0,0,0-.47.19,3,3,0,0,0-.51.32l-3.32,2.63-.12.09-.12.07h0l-.11,0h0l0,0h0a.87.87,0,0,1-.12-.37l-.38-2.82a.91.91,0,0,0,.41-.89l0-.19a2.94,2.94,0,0,0-1.92-2.39h0a3.07,3.07,0,0,0-.43-.22h0a2.91,2.91,0,0,0-.48-.15,2.94,2.94,0,0,0-.59-.07h0a3.05,3.05,0,0,0-.6.05h0l-4,.75s0-.07,0-.11l1.45-4h0a2.93,2.93,0,0,0-1.77-3.78h0l-.28-.16a2.7,2.7,0,0,0-.43-.18l-1.37-.42Zm3.11,3.19.93.09a1.11,1.11,0,0,1,.18.26,1.14,1.14,0,0,1,0,.91l-1.44,4a2.29,2.29,0,0,0,.06,1.91,1.8,1.8,0,0,0,1,.81,2.3,2.3,0,0,0,1.93.4l4.16-.79a.58.58,0,0,1,.8.66l0,.14-16.57,9.46,1.15-6.26a.92.92,0,0,0-.64-1l-6.53-2Z" transform="translate(-262 -28.5)"/></g><circle class="cls-2" cx="337.5" cy="360" r="7.5"/><circle class="cls-2" cx="1095.5" cy="355" r="7.5"/><circle class="cls-4" cx="1049.5" cy="683" r="7.5"/><circle class="cls-4" cx="217.5" cy="621" r="7.5"/><circle class="cls-2" cx="329.5" cy="662" r="12.5"/><circle class="cls-2" cx="807.5" cy="133" r="12.5"/><rect class="cls-5" x="1232.47" y="987.66" width="31.89" height="31.89" transform="translate(-69.12 -229.72) rotate(9.98)"/><rect class="cls-5" x="691.47" y="98.66" width="31.89" height="31.89" transform="translate(-231.42 -149.4) rotate(9.98)"/><path id="_Compound_Path_10" data-name="&lt;Compound Path&gt;" class="cls-2" d="M901.44,801.44l-6.17-2.83a2.57,2.57,0,0,0-3.4,1.26l-4.26,9.3-9.3-4.26a2.56,2.56,0,0,0-3.4,1.26l-2.83,6.17a2.56,2.56,0,0,0,1.26,3.4l9.3,4.26-4.26,9.3a2.57,2.57,0,0,0,1.26,3.4l6.17,2.83a2.57,2.57,0,0,0,3.4-1.26l4.26-9.3,9.29,4.25a2.57,2.57,0,0,0,3.4-1.26l2.83-6.17a2.56,2.56,0,0,0-1.26-3.4l-9.29-4.25,4.26-9.3A2.57,2.57,0,0,0,901.44,801.44Zm4.1,19.69-2.12,4.63-10.07-4.61a1.71,1.71,0,0,0-2.26.84l-4.61,10.08L881.86,830l4.61-10.08a1.71,1.71,0,0,0-.84-2.26L875.55,813l2.12-4.63L887.75,813a1.71,1.71,0,0,0,2.26-.84l4.61-10.07,4.63,2.12-4.61,10.07a1.71,1.71,0,0,0,.84,2.26Z" transform="translate(-262 -28.5)"/><path id="_Compound_Path_11" data-name="&lt;Compound Path&gt;" class="cls-2" d="M705.44,438.44l-6.17-2.83a2.57,2.57,0,0,0-3.4,1.26l-4.26,9.3-9.3-4.26a2.56,2.56,0,0,0-3.4,1.26l-2.83,6.17a2.56,2.56,0,0,0,1.26,3.4l9.3,4.26-4.26,9.3a2.57,2.57,0,0,0,1.26,3.4l6.17,2.83a2.57,2.57,0,0,0,3.4-1.26l4.26-9.3,9.29,4.25a2.57,2.57,0,0,0,3.4-1.26l2.83-6.17a2.56,2.56,0,0,0-1.26-3.4l-9.29-4.25,4.26-9.3A2.57,2.57,0,0,0,705.44,438.44Zm4.1,19.69-2.12,4.63-10.07-4.61a1.71,1.71,0,0,0-2.26.84l-4.61,10.08L685.86,467l4.61-10.08a1.71,1.71,0,0,0-.84-2.26L679.55,450l2.12-4.63L691.75,450a1.71,1.71,0,0,0,2.26-.84l4.61-10.07,4.63,2.12-4.61,10.07a1.71,1.71,0,0,0,.84,2.26Z" transform="translate(-262 -28.5)"/></svg>