<svg xmlns="http://www.w3.org/2000/svg" width="80.822" height="71.538" viewBox="0 0 80.822 71.538">
  <g id="sticker_alb" data-name="sticker alb" transform="translate(0 0.01)">
    <path id="Path_8" data-name="Path 8" d="M278.835,392.13a7.587,7.587,0,0,1-2.037,1.557,7.738,7.738,0,0,1-3.924.845,10.047,10.047,0,0,1-2.824-.411,7.9,7.9,0,0,1-3.715,5.018,8.681,8.681,0,0,1-4.2.99,13.189,13.189,0,0,1-4.225-.723v-.075l-.041.035a9.8,9.8,0,0,1-6.366,2.043h-.3l-8.461,8.53v3.779a7.963,7.963,0,0,0,2.83,3.93,7.734,7.734,0,0,0,6.053.9,8.681,8.681,0,0,1,1.534-5.307l1.308.8c-3.472,5.51.972,8.49,1.157,8.611l-.822,1.279a7.882,7.882,0,0,1-2.894-3.895,12.61,12.61,0,0,1-2.425.249,7.981,7.981,0,0,1-6.725-3.351v1.325c0,16.355,17.669,13.212,21.517,5.822h.1a9.109,9.109,0,0,0,1.325-4.954c-.122-2.4-1.4-4.665-3.8-6.754a9.155,9.155,0,0,1-5.209,3.189l-.37-1.47a7.347,7.347,0,0,0,5.787-8.623l1.487-.3a10.278,10.278,0,0,1-.857,5.9c2.842,2.413,4.358,5.1,4.5,7.992a10.255,10.255,0,0,1-1.111,5.012,10.959,10.959,0,0,0,8.258-7.147h0c0-.041,1.5-4.178-.394-7.709-1.221-2.274-3.582-3.843-7.026-4.665l.353-1.476c3.889.926,6.586,2.755,8.015,5.434a9.787,9.787,0,0,1,1.082,3.617c1.58-1.615,3.6-4.508,2.06-7.3C283.112,401.147,281.764,394.509,278.835,392.13Z" transform="translate(-200.684 -358.609)" fill="#fff"/>
    <path id="Path_9" data-name="Path 9" d="M286.69,354.8Z" transform="translate(-219.199 -342.882)" fill="#630b7f"/>
    <path id="Path_10" data-name="Path 10" d="M242.77,360.662v3.357l3.472-3.646a14.581,14.581,0,0,0-3.472.289Z" transform="translate(-200.697 -345.226)" fill="#fff"/>
    <path id="Path_11" data-name="Path 11" d="M260.352,373.562l-5.446,5.486a7.778,7.778,0,0,0,4.132-1.62,8.771,8.771,0,0,0,2.894-5.747l1.516.087a10.607,10.607,0,0,1-2.263,5.643c1.273.341,4.2.9,6.528-.376a6.53,6.53,0,0,0,3.033-4.283,6.419,6.419,0,0,1-1.615-1.273,8.454,8.454,0,0,1-1.921-5.915l1.51.133a7.008,7.008,0,0,0,1.534,4.769,4.879,4.879,0,0,0,1.117.891l.579.243c.035,0,3.472,1.464,6.244,0a5.382,5.382,0,0,0,2.813-3.351,6.8,6.8,0,0,0,.243-1.406c.058-2.413-.706-5.052-3.125-5.7,1.4-5-1.979-10.226-6.2-11.2.862,2.934.7,5.417-.492,7.4-2.176,3.6-6.945,4.1-7.118,4.126l-.15-1.51c.04,0,4.2-.463,5.972-3.409,1.036-1.736.8-3.582.145-6.76h0c-.324-3.42-4.734-7.8-9.566-6.806a10.342,10.342,0,0,1,.411,7.234,11.37,11.37,0,0,1-5.209,5.961,13.363,13.363,0,0,1,1.291,5.556,8.636,8.636,0,0,1,5.365,1.736l-.857,1.256c-5.371-3.669-8.519.631-8.681.81l-1.244-.874a7.911,7.911,0,0,1,3.866-2.674,10.852,10.852,0,0,0-2.055-6.557l-5.828,15.238Z" transform="translate(-202.803 -337.842)" fill="#fff"/>
    <path id="Path_12" data-name="Path 12" d="M252.163,350.186a8.3,8.3,0,0,1,.885,1.019,10.008,10.008,0,0,0,4.543-5.156c.758-2.257.405-4.815-1.042-7.616a8.59,8.59,0,0,0-7.147-4.242c-4.456,0-6.632,3.646-6.632,8.351v5.544a14.41,14.41,0,0,1,4.821-.127l9.017-9.4Z" transform="translate(-200.697 -334.2)" fill="#fff"/>
    <path id="Path_13" data-name="Path 13" d="M181.425,378.555a7.523,7.523,0,0,1,4.9,3.652,6.788,6.788,0,0,1,.822,2.28,6.041,6.041,0,0,0,4.832-2.217,3.942,3.942,0,0,0,.046-4l-.428-.914,1-.156c1.875-.3,4.2-1.7,4.665-3.3.694-2.4.249-4.693-1.441-7.379a8.174,8.174,0,0,1-1.418.579,9.314,9.314,0,0,1-7.483-1.262,9.99,9.99,0,0,1-5.787,4.832,10.325,10.325,0,0,1-2.651.341,11.219,11.219,0,0,1-1.51-.1c-3.218,1.117-3.258,5.984-2.373,8.478A12.246,12.246,0,0,1,181.425,378.555Z" transform="translate(-171.767 -347.533)" fill="#fff"/>
    <path id="Path_14" data-name="Path 14" d="M210.337,391.881a15.11,15.11,0,0,1-4.96-2.211,4.954,4.954,0,0,1-.758,3.472,6.418,6.418,0,0,1-3.519,2.506,8.416,8.416,0,0,1,7.581,5.648,9.005,9.005,0,0,1,4.85-4.908,9.29,9.29,0,0,1,1.736-.544l-6.516-2.315Z" transform="translate(-183.142 -357.572)" fill="#fff"/>
    <path id="Path_15" data-name="Path 15" d="M212.559,342.551c0-4.711-2.176-8.351-6.632-8.351s-7.188,3.744-7.8,5.567c-5.365-2.315-10.631,2.732-10.631,6.366-4.63-.463-9.011,4.589-8.473,9.879a9.046,9.046,0,0,0,3.785-.156c3.432-.909,5.139-4.705,5.156-4.746l.359-.816.752.486c2.5,1.632,4.827,2.141,6.945,1.522,3.125-.926,4.925-4.121,5.353-4.977a11.309,11.309,0,0,1-1.325-3.386l1.482-.347c.579,2.465,1.62,4.051,3.114,4.8a5.972,5.972,0,0,0,4.63-.122l.66,1.372a8.224,8.224,0,0,1-3.27.706,6.129,6.129,0,0,1-2.668-.579,5.822,5.822,0,0,1-1.6-1.157,12.639,12.639,0,0,1-3.229,3.739,10.335,10.335,0,0,1,1.615,8.611c-.5,1.736-2.263,3.125-4.126,3.878a12.5,12.5,0,0,0,5.666,2.315l10.232-10.683Z" transform="translate(-173.825 -334.204)" fill="#fff"/>
    <path id="Path_16" data-name="Path 16" d="M213.078,403.221a7.361,7.361,0,0,0-4.468,5.712l-.127.955-.9-.347a7.616,7.616,0,0,0-5.891.307c-2.315,1.273-4.011,4.317-2.494,8.154,2.749-.695,5.428.405,7.523,3.038h0a6.413,6.413,0,0,1,4.775-1.319l8.137-16.343A8.258,8.258,0,0,0,213.078,403.221Z" transform="translate(-182.099 -363.027)" fill="#fff"/>
    <path id="Path_17" data-name="Path 17" d="M195.615,416.972a5.637,5.637,0,0,0-1.858,6.2l-1.429.515a7.2,7.2,0,0,1,1.221-6.823c-1.736-2.263-3.93-3.218-6.14-2.622a5.637,5.637,0,0,0-4.051,5.023l-1.516-.075a7.2,7.2,0,0,1,3.9-5.9c-1.736-4.5.179-8.392,3.189-10.029a9.167,9.167,0,0,1,5.394-.851c-1.875-5.394-6.742-5.417-9.618-4.9l-1.273.232.417-1.221a4.219,4.219,0,0,0-.55-3.31,5.984,5.984,0,0,0-3.883-2.894,11.31,11.31,0,0,0-6.829,1.157c-2.824,2.477-4.051,8.959.532,12.622-2.124,3.848,2.529,7.9,3.443,8.507.1,7.292,6.783,11.441,10.735,10.735a11.222,11.222,0,0,0,5.417,4.711l6-12.055A4.873,4.873,0,0,0,195.615,416.972Z" transform="translate(-170.07 -357.778)" fill="#fff"/>
    <path id="Path_18" data-name="Path 18" d="M225.626,433.7V428.69L210,444.437C216.574,447.117,225.626,445.4,225.626,433.7Z" transform="translate(-186.892 -374.01)" fill="#fff"/>
    <path id="Path_19" data-name="Path 19" d="M209.65,455.738l-.48-.208" transform="translate(-186.542 -385.317)" fill="none"/>
  </g>
</svg>
