<svg xmlns="http://www.w3.org/2000/svg" width="272" height="288.524" viewBox="0 0 272 288.524">
  <g id="sticker_normal" data-name="sticker normal" transform="translate(0.02 0.025)">
    <path id="Path_20" data-name="Path 20" d="M439.4,538.564a12.508,12.508,0,0,1,1.657-.125h45.048a11.547,11.547,0,0,1,11.547,11.547v9.195a12.79,12.79,0,0,1-.143,1.782c0,.285.339,10.995.339,13.026v8.536A11.547,11.547,0,0,1,486.3,594.054h-11.69a11.925,11.925,0,0,1-2.085-.178,11.567,11.567,0,0,1-2.067.178H416.842a11.545,11.545,0,0,0-3.386,0H373.327a9.478,9.478,0,0,1-1.23,0,9.123,9.123,0,0,1-1.23,0H332.806c-1.372,0-4.277,0-7.217.143s-6.023.142-7.484.142H307.983c-1.6,0-4.847,0-8.072-.142s-6.344-.143-7.876-.143H260.975a11.547,11.547,0,0,1-11.547-11.529V549.951A11.565,11.565,0,0,1,260.975,538.4h31.113a9.925,9.925,0,0,0,3.136,0h5.952a44.053,44.053,0,0,1-8.2-7.716,42.66,42.66,0,0,1-24.324-11.868,45.369,45.369,0,0,1-13.792-27.086,49.644,49.644,0,0,1-7.359-8.785,29.527,29.527,0,0,1-5.132-19.887,36.53,36.53,0,0,1-7.894-22.132,38.6,38.6,0,0,1,8.375-25.2,38.828,38.828,0,0,1,2.049-25.072,24.3,24.3,0,0,1,5.488-7.5,40.985,40.985,0,0,1,10.692-28.689,35.96,35.96,0,0,1,17.819-11.03,37.047,37.047,0,0,1,8.357-11.814,35.835,35.835,0,0,1,27.87-10.335c3.76-4.972,13.6-15.467,29.723-15.467A29.545,29.545,0,0,1,370.4,319.331a29.527,29.527,0,0,1,25.535-13.507c15.521,0,25.179,9.516,29.723,15.467,1.016,0,2.014-.143,2.994-.143,16.251,0,28.939,11.583,33.982,22.488a37.813,37.813,0,0,1,22.078,17.5,40.539,40.539,0,0,1,5.72,22.007c5.845,5.346,8.91,13.81,8.66,23.789v.552A32.281,32.281,0,0,1,497.9,414.2c-.089.356-.214.695-.321,1.051a38.312,38.312,0,0,1,8.785,24.947,36.209,36.209,0,0,1-7.876,22.827c1.247,9.035-2.709,18.746-11.137,27.371a14.153,14.153,0,0,1-1.586,1.354,49.394,49.394,0,0,1-1.6,7.841,13.566,13.566,0,0,1-.392,1.354,45.012,45.012,0,0,1-34.677,29.58,6.964,6.964,0,0,1-1.212.107,45.919,45.919,0,0,1-8.482,7.93Z" transform="translate(-234.391 -305.84)" fill="#fff"/>
    <path id="Path_21" data-name="Path 21" d="M447.887,530.654a6.97,6.97,0,0,0,1.212-.107,45.012,45.012,0,0,0,34.677-29.58,13.551,13.551,0,0,0,.392-1.354,49.391,49.391,0,0,0,1.6-7.841,14.14,14.14,0,0,0,1.586-1.354c8.429-8.625,12.474-18.336,11.137-27.371a36.209,36.209,0,0,0,7.823-22.827,38.312,38.312,0,0,0-8.785-24.947c.107-.356.232-.7.321-1.051a32.268,32.268,0,0,0,1.194-6.718v-.552c.25-9.979-2.815-18.408-8.66-23.789a40.539,40.539,0,0,0-5.72-22.007,37.814,37.814,0,0,0-22.078-17.5c-5.043-10.905-17.819-22.488-33.982-22.488a21.31,21.31,0,0,0-2.994.143c-4.544-5.952-14.256-15.467-29.723-15.467a29.527,29.527,0,0,0-25.535,13.507A29.545,29.545,0,0,0,344.8,305.844c-16.127,0-25.963,10.5-29.723,15.467a35.835,35.835,0,0,0-27.87,10.335,37.044,37.044,0,0,0-8.357,11.814,35.959,35.959,0,0,0-17.819,11.03,40.985,40.985,0,0,0-10.692,28.689,24.307,24.307,0,0,0-5.488,7.5,38.829,38.829,0,0,0-2.049,25.072,38.6,38.6,0,0,0-8.375,25.2,36.53,36.53,0,0,0,7.894,22.132,29.527,29.527,0,0,0,5.132,19.886,49.646,49.646,0,0,0,7.359,8.785,45.369,45.369,0,0,0,13.792,27.086,42.66,42.66,0,0,0,24.359,11.814,44.045,44.045,0,0,0,8.2,7.716H295.21a9.92,9.92,0,0,1-3.136,0H260.961a11.565,11.565,0,0,0-11.547,11.547v32.574a11.547,11.547,0,0,0,11.547,11.529H292.02c1.532,0,4.7,0,7.876.143s6.468.143,8.072.143H318.09c1.461,0,4.491,0,7.484-.143s5.845-.143,7.217-.143h38.1a9.093,9.093,0,0,0,1.23,0,9.512,9.512,0,0,0,1.23,0h40.129a11.551,11.551,0,0,1,3.386,0H470.5a11.567,11.567,0,0,0,2.067-.178,11.906,11.906,0,0,0,2.085.178h11.69a11.547,11.547,0,0,0,11.547-11.529v-8.535c0-2.031-.321-12.741-.339-13.026a12.784,12.784,0,0,0,.143-1.782v-9.159a11.547,11.547,0,0,0-11.547-11.547H441.1a12.5,12.5,0,0,0-1.657.125,45.921,45.921,0,0,0,8.446-7.912Zm-12.331,8.357-1.657,1.051,1.889.552.909.339.339.143.339-.143a9.586,9.586,0,0,1,3.724-.749h45.048a9.783,9.783,0,0,1,9.765,9.765v9.195a10.9,10.9,0,0,1-.142,1.782c0,.107.339,11.137.339,13.133v8.536a9.765,9.765,0,0,1-9.765,9.747h-11.69a9.994,9.994,0,0,1-1.907-.178h-.339a9.993,9.993,0,0,1-1.907.178H416.881a8.914,8.914,0,0,1-1.55-.125h-.285a11.143,11.143,0,0,1-1.55.107h-40.13a7.94,7.94,0,0,1-1.123,0h-.2a8.01,8.01,0,0,1-1.141,0H332.845c-1.372,0-4.312,0-7.253.143s-6.005.143-7.449.143H308.022c-1.6,0-4.829,0-8.037-.143s-6.362-.143-7.912-.143H261.014a9.765,9.765,0,0,1-9.765-9.747V550.024a9.783,9.783,0,0,1,9.765-9.765h31.113a9.884,9.884,0,0,1,1.443.125h.25a9.882,9.882,0,0,1,1.443-.125h11.8l-2.495-1.622a44.444,44.444,0,0,1-10.389-9.266l-.25-.3h-.374a40.877,40.877,0,0,1-23.629-11.422,43.658,43.658,0,0,1-13.293-26.337v-.321l-.232-.214a46.937,46.937,0,0,1-7.324-8.7,27.673,27.673,0,0,1-4.811-19.031v-.392l-.249-.3a34.534,34.534,0,0,1-7.751-21.383,37.3,37.3,0,0,1,8.215-24.359l.3-.339-.107-.445c-1.639-6.54-2.014-16.358,1.782-24.306a22.276,22.276,0,0,1,5.346-7.235l.321-.285v-.428a39.2,39.2,0,0,1,10.157-27.834,34.356,34.356,0,0,1,17.427-10.585l.446-.107.178-.428a34.783,34.783,0,0,1,8.144-11.636,33.857,33.857,0,0,1,26.943-9.8h.5l.3-.41c3.35-4.562,12.83-15.147,28.6-15.147a27.87,27.87,0,0,1,24.787,13.846l.766,1.283.748-1.283a27.87,27.87,0,0,1,24.787-13.846c15.093,0,24.395,9.5,28.511,15.164l.3.392h.5c1.123-.107,2.245-.178,3.314-.178,15.663,0,27.834,11.315,32.538,21.829l.178.392.41.107a35.978,35.978,0,0,1,21.383,16.786A38.813,38.813,0,0,1,488.5,383.5v.428l.321.285c5.649,5.007,8.625,13.079,8.375,22.684a4.332,4.332,0,0,1,0,.481,30.059,30.059,0,0,1-1.123,6.344c-.143.481-.3.98-.463,1.443l-.178.5.356.392a36.37,36.37,0,0,1,8.749,24.163,34.445,34.445,0,0,1-7.716,22.007l-.249.321v.392c1.319,8.571-2.441,17.819-10.692,26.23a9.757,9.757,0,0,1-1.639,1.336l-.339.232v.428a48.108,48.108,0,0,1-1.6,8,9.134,9.134,0,0,1-.339,1.194c-6.076,17.214-21.08,26.729-33.251,28.511a9.127,9.127,0,0,1-1.39.107h-.428l-.267.339A44.548,44.548,0,0,1,435.556,539.012Z" transform="translate(-234.43 -305.824)"/>
    <path id="Path_22" data-name="Path 22" d="M425.62,370.25a23.363,23.363,0,0,1-6.272,4.793,23.825,23.825,0,0,1-12.082,2.6,30.937,30.937,0,0,1-8.7-1.265c-2.067,7.128-5.9,12.474-11.44,15.45a26.729,26.729,0,0,1-12.937,3.047,40.61,40.61,0,0,1-13.008-2.228v-.232l-.125.107a30.186,30.186,0,0,1-19.6,6.29h-.927l-26,26.23v11.636a24.519,24.519,0,0,0,8.714,12.1c4.847,3.332,11.119,4.259,18.639,2.78a26.73,26.73,0,0,1,4.722-16.341l3.974,2.477c-10.692,16.964,2.994,26.141,3.564,26.515l-2.53,3.938a24.27,24.27,0,0,1-8.91-11.992,38.832,38.832,0,0,1-7.466.766A24.573,24.573,0,0,1,314.48,446.7v4.081c0,50.358,54.4,40.682,66.253,17.926h.321a28.048,28.048,0,0,0,4.081-15.253c-.374-7.377-4.312-14.363-11.69-20.8a28.19,28.19,0,0,1-16.038,9.819l-1.141-4.526c21.615-5.471,17.962-25.678,17.82-26.551l4.58-.909a31.649,31.649,0,0,1-2.673,18.247c8.749,7.431,13.418,15.7,13.846,24.609a31.576,31.576,0,0,1-3.421,15.432c9.48-1.354,20.92-9.23,25.428-22.007h0c0-.125,4.615-12.866-1.212-23.736-3.76-7-11.03-11.832-21.633-14.362l1.087-4.544c11.975,2.851,20.279,8.482,24.68,16.732a30.133,30.133,0,0,1,3.332,11.137c4.865-4.972,11.084-13.881,6.344-22.47C438.771,398.031,434.637,377.574,425.62,370.25Z" transform="translate(-171.82 -255.455)" fill="#630b7f"/>
    <path id="Path_23" data-name="Path 23" d="M358.43,332.92Z" transform="translate(-137.453 -284.645)" fill="#630b7f"/>
    <path id="Path_24" data-name="Path 24" d="M314.51,339.4v10.335L325.2,338.513a44.9,44.9,0,0,0-10.692.891Z" transform="translate(-171.796 -280.295)" fill="#630b7f"/>
    <path id="Path_25" data-name="Path 25" d="M358.164,415.568,341.4,432.461a23.949,23.949,0,0,0,12.723-4.989c8.2-6.629,8.91-17.588,8.91-17.695l4.669.267a32.663,32.663,0,0,1-6.967,17.374c3.92,1.051,12.937,2.78,20.1-1.158,4.526-2.495,7.662-6.932,9.337-13.186a19.761,19.761,0,0,1-4.972-3.92c-6.771-7.4-5.952-17.82-5.916-18.212l4.651.41s-.659,8.91,4.722,14.683a15.026,15.026,0,0,0,3.439,2.744l1.782.749c.107,0,10.692,4.508,19.227,0a16.572,16.572,0,0,0,8.66-10.318,20.961,20.961,0,0,0,.749-4.33c.178-7.431-2.174-15.556-9.623-17.552,4.312-15.4-6.094-31.487-19.1-34.5,2.655,9.035,2.156,16.679-1.515,22.773-6.7,11.084-21.383,12.634-21.918,12.705l-.463-4.651c.125,0,12.937-1.426,18.39-10.5,3.19-5.346,2.477-11.03.445-20.813h0c-1-10.531-14.576-24-29.456-20.956a31.844,31.844,0,0,1,1.265,22.274c-3.332,9.89-11.476,15.752-16.038,18.354a41.147,41.147,0,0,1,3.974,17.107c4.669-.25,10.228,1.051,16.519,5.346l-2.637,3.867c-16.536-11.3-26.23,1.942-26.729,2.495l-3.831-2.691a24.359,24.359,0,0,1,11.9-8.233c0-3.564-.624-13.311-6.326-20.189L319.62,406.569Z" transform="translate(-167.8 -294.002)" fill="#630b7f"/>
    <path id="Path_26" data-name="Path 26" d="M343.431,361.613a25.582,25.582,0,0,1,2.727,3.136c3.849-2.227,11.155-7.4,13.988-15.877,2.334-6.95,1.247-14.826-3.207-23.45-3.564-5.809-11.137-13.062-22.007-13.062-13.721,0-20.421,11.226-20.421,25.714v17.071a44.372,44.372,0,0,1,14.844-.392L357.116,325.8Z" transform="translate(-171.796 -300.722)" fill="#630b7f"/>
    <path id="Path_27" data-name="Path 27" d="M268.4,383.109a23.165,23.165,0,0,1,15.075,11.244,20.9,20.9,0,0,1,2.53,7.021c6.629-.3,12.206-2.815,14.879-6.825,2.263-3.4,2.316-7.662.143-12.313l-1.319-2.815,3.065-.481c5.773-.927,12.937-5.221,14.362-10.157,2.138-7.377.766-14.452-4.437-22.72a25.156,25.156,0,0,1-4.366,1.782c-7.128,2.138-14.951.837-23.041-3.885-2.352,4.116-8.09,12.331-17.819,14.879a31.79,31.79,0,0,1-8.161,1.051,34.532,34.532,0,0,1-4.651-.321c-9.908,3.439-10.032,18.425-7.306,26.106A37.706,37.706,0,0,1,268.4,383.109Z" transform="translate(-225.495 -276.013)" fill="#630b7f"/>
    <path id="Path_28" data-name="Path 28" d="M301.28,374.6a46.525,46.525,0,0,1-15.271-6.807,15.253,15.253,0,0,1-2.334,10.692,19.762,19.762,0,0,1-10.834,7.627c8.5.731,18.39,4.6,23.344,17.392a27.726,27.726,0,0,1,14.933-15.111,28.6,28.6,0,0,1,5.346-1.675L296.4,379.586Z" transform="translate(-204.38 -257.379)" fill="#630b7f"/>
    <path id="Path_29" data-name="Path 29" d="M354.127,338.044c0-14.505-6.7-25.714-20.421-25.714s-22.132,11.529-24,17.142c-16.519-7.128-32.734,8.411-32.734,19.6-14.256-1.426-27.745,14.131-26.088,30.418a27.852,27.852,0,0,0,11.654-.481c10.567-2.8,15.824-14.487,15.877-14.612l1.1-2.513,2.316,1.5c7.7,5.025,14.861,6.593,21.383,4.686,9.622-2.851,15.164-12.687,16.483-15.325a34.822,34.822,0,0,1-4.081-10.424l4.562-1.069c1.782,7.591,4.989,12.474,9.587,14.772,6.629,3.19,14.256-.339,14.256-.374l2.031,4.223a25.321,25.321,0,0,1-10.068,2.174,18.87,18.87,0,0,1-8.215-1.782,17.924,17.924,0,0,1-4.918-3.564,38.918,38.918,0,0,1-9.943,11.511c4.045,6.379,8.144,15.539,4.972,26.515-1.532,5.346-6.967,9.623-12.705,11.939q9.756,6.5,17.445,7.128l31.594-32.948Z" transform="translate(-221.659 -300.745)" fill="#630b7f"/>
    <path id="Path_30" data-name="Path 30" d="M314.861,382.61A22.666,22.666,0,0,0,301.1,400.2l-.392,2.94-2.762-1.069a23.45,23.45,0,0,0-18.14.945c-7.128,3.92-12.349,13.293-7.68,25.108,8.464-2.138,16.715,1.247,23.165,9.355h0a19.744,19.744,0,0,1,14.7-4.063L335.015,383a25.428,25.428,0,0,0-20.154-.392Z" transform="translate(-206.325 -247.269)" fill="#630b7f"/>
    <path id="Path_31" data-name="Path 31" d="M320.427,450.838a17.356,17.356,0,0,0-5.631,19.1l-4.4,1.586a22.167,22.167,0,0,1,3.76-21.009c-5.346-6.967-12.1-9.908-18.906-8.072a17.356,17.356,0,0,0-12.474,15.467l-4.669-.232a22.168,22.168,0,0,1,12.01-18.176c-5.346-13.846.552-25.838,9.818-30.881A28.226,28.226,0,0,1,316.542,406c-5.773-16.608-20.76-16.679-29.616-15.093l-3.92.713,1.283-3.76a12.99,12.99,0,0,0-1.693-10.193,18.425,18.425,0,0,0-11.957-8.91c-7.876-1.621-16.038,1.176-21.027,3.564-8.7,7.627-12.474,27.585,1.639,38.864-6.54,11.85,7.787,24.324,10.6,26.195.3,22.453,20.884,35.229,33.055,33.055,3.154,6.059,9.32,11.191,16.679,14.505l18.479-37.118a15,15,0,0,0-9.64,3.012Z" transform="translate(-228.605 -256.996)" fill="#630b7f"/>
    <path id="Path_32" data-name="Path 32" d="M329.873,422.224V406.81L281.76,455.3C301.967,463.547,329.873,458.273,329.873,422.224Z" transform="translate(-197.405 -226.867)" fill="#630b7f"/>
    <path id="Path_33" data-name="Path 33" d="M282.419,434.281l-1.479-.641" transform="translate(-198.046 -205.887)" fill="none"/>
    <path id="Path_34" data-name="Path 34" d="M250.22,467.583h2.548V450.655H250.22v-7.8h31.059v10.407h-8.536v-2.584h-7.377v4.918h6.415V462.2h-6.415v5.346h7.377v-2.584h8.536V475.37H250.22Z" transform="translate(-222.068 -198.686)" fill="#630b7f"/>
    <path id="Path_35" data-name="Path 35" d="M271.841,450.655H269.4v-7.8h17.5v7.8h-2.726l4.793,13.846h.089l5.025-13.846h-2.691v-7.8h13.133v7.8h-2.388L292.351,475.6H282.194Z" transform="translate(-207.07 -198.686)" fill="#630b7f"/>
    <path id="Path_36" data-name="Path 36" d="M290.573,467.583h2.584V450.655H290.52v-7.8h18.069c9.213,0,12.652.766,15.4,3.564a8.643,8.643,0,0,1,2.495,6.237,8.2,8.2,0,0,1-4.74,7.573l4.508,7.431H328.6v7.8H316.857l-7.128-13.276h-3.92v5.471h2.441v7.8H290.556Zm18.8-11.4c2.584,0,3.974-1.158,3.974-3.065S312.01,450,309.462,450H305.9v6.183Z" transform="translate(-190.555 -198.686)" fill="#630b7f"/>
    <path id="Path_37" data-name="Path 37" d="M313.28,467.583h3.065V450.655h-3.011v-7.8h18.639v7.8h-3.011v16.929h3.011v7.8H313.28Z" transform="translate(-172.758 -198.686)" fill="#630b7f"/>
    <path id="Path_38" data-name="Path 38" d="M325.87,467.583h2.495V450.655H325.87v-7.8h17.695v7.8h-2.584v16.929h2.584v7.8H325.87Zm21.1,0H348.5l-7.128-9.248,8.286-7.662h-2.691v-7.8h16.038v7.8h-2.548l-6.611,6.13,8.286,10.781h1.622v7.8H346.933Z" transform="translate(-162.913 -198.686)" fill="#630b7f"/>
    <path id="Path_39" data-name="Path 39" d="M347.938,467.583h2.441l6.13-16.929h-2.637v-7.8H377.3v7.8h-2.637l6.237,16.929h2.388v7.8H366.274v-7.128h2.833l-1.247-4.081H359.52l-1.39,4.081h2.691v7.128h-12.9ZM366.63,460.1l-2.726-9.017h-.089l-2.976,9.017Z" transform="translate(-145.671 -198.686)" fill="#630b7f"/>
    <path id="Path_40" data-name="Path 40" d="M370.13,466.871h11.654v8.536H370.13Zm.2-14.665V442.85h11.262v9.177l-1.675,10.3H372Z" transform="translate(-128.304 -198.686)" fill="#630b7f"/>
  </g>
</svg>
